<svg width="143" height="60" viewBox="0 0 143 60" fill="none" xmlns="http://www.w3.org/2000/svg">
<path d="M18.5877 59.4528C18.3598 59.4849 17.7464 59.2437 16.7475 58.7292L14.5393 57.7388C14.2764 57.5988 14.145 57.2279 14.145 56.6262C14.145 54.1485 17.4047 44.2487 23.9241 26.9268L24.8442 24.6472C24.6514 24.692 23.9066 25.7081 22.6097 27.6956C21.9788 28.6691 21.3216 29.6552 20.6381 30.6538C18.9557 33.1025 17.7552 34.3773 17.0367 34.4783C16.9315 34.4931 16.8351 34.4801 16.7475 34.4393C15.9939 34.1028 15.3367 33.8323 14.7759 33.628C13.8295 33.3185 13.146 32.9899 12.7254 32.6419C12.3048 32.294 12.0945 31.6422 12.0945 30.6865C12.0945 29.8193 12.2435 28.5507 12.5414 26.8807C12.261 27.3271 10.9028 31.1106 8.46676 38.2312C7.80079 40.0945 7.10854 41.997 6.39 43.9385C4.67251 48.5866 3.55089 50.9476 3.02513 51.0214C2.95503 51.0313 2.89369 51.0045 2.84111 50.9411C1.71949 49.4529 1.00095 48.5539 0.685495 48.2443C0.457665 47.9755 0.34375 47.8057 0.34375 47.7349C0.641681 46.4719 2.95503 39.811 7.28379 27.7523C10.2281 20.0825 12.261 16.0095 13.3826 15.5333C13.6806 15.4207 14.3991 14.7976 15.5382 13.6641C15.9238 13.2206 16.2042 12.9865 16.3795 12.9619C16.5898 12.9323 16.7124 13.1806 16.7475 13.7066C16.8351 14.3137 17.0016 14.6088 17.247 14.592C17.5799 14.5806 17.7464 14.6192 17.7464 14.7077C17.7464 14.7961 17.7026 14.9173 17.615 15.0712C17.5449 15.205 17.466 15.393 17.3784 15.6354C17.2908 15.8778 17.247 16.1671 17.247 16.5034C17.247 16.7157 17.2733 16.9421 17.3258 17.1825C17.4836 18.0098 17.5624 18.9632 17.5624 20.0428C17.5624 21.671 17.4135 23.7979 17.1155 26.4236C17.0454 27.0706 17.0104 27.4914 17.0104 27.6861C17.4836 27.1418 18.132 26.2454 18.9557 24.997C22.268 19.7531 26.7545 14.2734 32.4152 8.55796C32.9409 7.95314 33.3002 7.63718 33.493 7.61009C33.7208 7.57807 33.9048 7.85307 34.045 8.43508C34.2028 8.99693 34.343 10.0833 34.4656 11.6943C34.4656 12.8269 34.0625 14.4321 33.2564 16.5098C32.4677 18.5851 31.4863 20.9883 30.3121 23.7195C28.5946 27.6597 26.3514 33.5939 23.5824 41.5223C20.8309 49.4481 19.2449 55.29 18.8242 59.0479C18.8242 59.2957 18.7454 59.4307 18.5877 59.4528Z" fill="black"/>
<path d="M41.1428 31.1435C41.3005 31.1213 41.432 30.9082 41.5371 30.504C41.6598 30.0975 41.8438 29.3194 42.0892 28.17C42.3871 26.5708 42.9742 23.9044 43.8505 20.1709C43.8505 20.1178 43.8417 20.0837 43.8242 20.0684C43.8067 20.0355 43.7979 20.0102 43.7979 19.9925C41.1516 23.4261 38.8119 27.0998 36.779 31.0135L38.2774 30.7232C39.2588 30.5853 40.0387 30.6704 40.617 30.9785C40.8273 31.1082 41.0026 31.1632 41.1428 31.1435ZM41.8263 45.8869C41.651 45.9115 41.5196 45.7087 41.432 45.2786C40.9588 43.186 40.6784 41.0929 40.5907 38.9992C40.6083 38.4127 40.6608 37.6885 40.7485 36.8267C40.7835 36.3263 40.8011 35.9345 40.8011 35.6513C40.6784 35.7393 40.582 35.7883 40.5119 35.7981C40.4067 35.7952 40.3103 35.7291 40.2227 35.5999C39.9774 35.3335 39.6882 35.206 39.3552 35.2174C39.1449 35.2293 38.8996 35.2549 38.6191 35.2943C37.6903 35.4248 36.4022 35.712 34.7548 36.1559C34.5971 36.1958 34.4832 36.2738 34.4131 36.3898C34.343 36.4881 34.1064 37.07 33.7033 38.1354C33.6682 38.2111 33.6507 38.2756 33.6507 38.3286C33.6507 38.4702 33.7559 38.5616 33.9662 38.6029C34.1765 38.6264 34.2816 38.6824 34.2816 38.7709C34.2816 38.9302 33.9574 39.3032 33.309 39.8898C33.0811 40.0988 32.7744 40.3985 32.3889 40.789C31.1621 42.094 30.3735 42.7712 30.023 42.8204C29.9178 42.8352 29.8477 42.792 29.8126 42.6907C29.3745 41.3365 29.1467 40.2447 29.1292 39.4154C29.0941 38.5885 28.9539 38.1835 28.7085 38.2003C28.4632 38.2171 28.3405 38.1989 28.3405 38.1458V37.8007C28.3756 37.2649 28.3931 36.8111 28.3931 36.4395C28.3931 35.8554 28.3493 35.2687 28.2617 34.6793C28.2266 34.4719 28.2091 34.2974 28.2091 34.1558C28.2091 33.908 28.2967 33.7276 28.472 33.6145L30.5487 32.8978C36.1043 22.0825 40.5732 15.5169 43.9556 13.201C44.1309 13.0702 44.3061 12.9925 44.4814 12.9678C44.7618 12.9284 45.4365 13.1345 46.5056 13.5859L48.2931 14.3169C49.0643 14.5625 49.4498 15.1631 49.4498 16.1188C49.4498 17.0568 49.1431 18.5599 48.5297 20.6283C47.0401 25.6868 45.8746 31.8766 45.0334 39.1977L45.0071 39.9713C45.0071 40.5199 45.0597 41.0877 45.1649 41.6746C45.1999 41.8997 45.2174 42.1008 45.2174 42.2778C45.2174 42.5609 45.1386 42.7756 44.9809 42.9216C43.9293 43.8127 43.1757 44.538 42.7201 45.0976C42.317 45.5967 42.0191 45.8598 41.8263 45.8869Z" fill="black"/>
<path d="M52.8673 43.1406C52.7972 43.1504 52.7183 43.1438 52.6307 43.1207C51.8946 42.7286 50.8168 42.3226 49.3972 41.9027C49.3096 41.8973 49.2658 41.7973 49.2658 41.6026C49.2658 40.8239 49.8266 38.763 50.9482 35.4198C52.0699 32.0766 53.1827 29.0974 54.2868 26.4823C55.4084 23.8647 56.346 21.8393 57.0996 20.406C57.1347 20.3303 57.1697 20.2281 57.2048 20.0993C56.7491 20.181 55.2595 20.6558 52.7358 21.5237L51.1848 22.0072C51.0271 22.0293 50.8694 21.9984 50.7116 21.9144C50.4312 21.7591 49.7039 21.1092 48.5297 19.9646C47.8462 19.335 47.5045 18.9849 47.5045 18.9141C47.5045 18.8079 47.671 18.696 48.004 18.5784C48.337 18.4608 48.8364 18.2225 49.5024 17.8635C51.4302 16.7961 55.5486 15.3324 61.8578 13.4724C64.9773 12.5384 67.2644 11.9692 68.719 11.7648C69.6127 11.6392 70.1122 11.684 70.2174 11.8993C70.1473 12.5109 70.0246 13.4396 69.8493 14.6853C69.5514 16.6385 69.122 17.6723 68.5612 17.7865C68.3684 17.8136 68.1669 17.718 67.9566 17.4998C67.8339 17.3578 67.6236 17.3077 67.3257 17.3495C66.9927 17.3963 66.5195 17.4982 65.9061 17.6552C65.7484 17.7128 65.1788 17.8636 64.1974 18.1077C63.2335 18.3494 62.7078 18.5206 62.6201 18.6214C62.55 18.7021 62.515 18.8132 62.515 18.9548C62.4624 19.2984 62.3047 19.7276 62.0418 20.2424C58.712 26.5683 56.0744 33.2216 54.1291 40.2024C53.8487 41.1444 53.6209 41.8666 53.4456 42.3691C53.2703 42.8538 53.0776 43.111 52.8673 43.1406Z" fill="black"/>
<path d="M74.8704 43.632C74.7302 43.6517 74.6425 43.6375 74.6075 43.5893C74.5899 43.5564 74.5812 43.4691 74.5812 43.3275C74.5812 42.5488 74.6601 41.5644 74.8178 40.3742C75.5363 34.7338 76.3425 30.674 77.2363 28.1946V28.0884C77.1311 28.1032 76.9997 28.0243 76.842 27.8518C76.6141 27.583 76.1585 27.4966 75.475 27.5926C74.2833 27.7601 72.9426 28.2671 71.4529 29.1136C70.9272 29.4175 70.638 29.6263 70.5854 29.7399L70.3488 30.304C69.3849 33.0234 68.903 34.4892 68.903 34.7016L68.9293 34.7244C69.0169 34.7298 69.0695 34.8463 69.087 35.0739C69.087 35.9411 68.8767 37.2803 68.4561 39.0914C68.1932 40.261 67.9391 40.8719 67.6937 40.9241C67.571 40.9413 67.3607 40.8559 67.0628 40.6677C66.6597 40.4058 65.8711 40.0299 64.6969 39.5401C64.2237 39.3943 63.9345 39.2845 63.8294 39.2108C63.7067 39.1218 63.6366 38.8927 63.6191 38.5236C63.6191 37.6918 63.9696 36.1028 64.6706 33.7567C64.7407 33.5699 64.7845 33.3867 64.802 33.2073C64.2938 33.3495 63.8294 33.4944 63.4088 33.642C62.9706 33.7921 62.6201 33.8856 62.3572 33.9226C62.0944 33.9595 61.9542 33.9173 61.9366 33.7958L62.515 31.697C62.7954 30.3657 63.1722 29.419 63.6454 28.857C64.1185 28.2773 65.1438 27.6642 66.7211 27.0178C66.8788 26.9248 67.5535 25.5557 68.7452 22.9106C70.9009 17.8293 72.4431 14.8871 73.3719 14.0841C75.6327 12.3151 77.0085 11.3873 77.4992 11.3007C77.6744 11.276 77.7708 11.3775 77.7883 11.6051C77.4729 13.8086 77.2012 15.4838 76.9734 16.6308C76.5528 18.5835 76.1585 19.5946 75.7904 19.664C75.7028 19.6763 75.5977 19.638 75.475 19.5491C75.3523 19.4424 75.2559 19.394 75.1858 19.4039C75.0982 19.4162 74.7214 20.1328 74.0554 21.5537C73.407 22.9545 73.0828 23.7345 73.0828 23.8938C73.2756 23.8667 73.591 23.7604 74.0291 23.575C75.291 23.0083 76.3074 22.6707 77.0786 22.5624C77.8497 22.454 78.3579 22.6038 78.6033 23.0117C78.6734 23.1435 78.7435 23.2044 78.8136 23.1946C78.9012 23.1822 79.1203 22.7179 79.4708 21.8014C79.9089 20.5541 81.0919 17.7155 83.0197 13.2856C84.2114 10.5166 85.1928 8.21073 85.9639 6.36799C86.1567 5.91616 86.2969 5.68408 86.3845 5.67177C86.4371 5.66438 87.0592 6.01938 88.251 6.73678C89.0221 7.14163 89.5741 7.47109 89.9071 7.72515C90.2401 7.96152 90.4154 8.23775 90.4329 8.55384C90.4329 8.99628 90.2401 9.572 89.8545 10.281C82.932 25.2527 79.4708 35.0569 79.4708 39.6937C79.4708 40.5609 79.5321 41.1186 79.6548 41.3668C79.6898 41.4681 79.7074 41.5452 79.7074 41.5983C79.7074 41.6868 79.3393 41.8801 78.6033 42.1782C76.5002 43.0755 75.2559 43.5601 74.8704 43.632Z" fill="black"/>
<path d="M91.537 37.0422C91.1514 37.0964 90.5906 37.0602 89.8545 36.9336C89.1185 36.807 88.3561 36.5867 87.5675 36.2728C86.7964 35.9387 86.1304 35.5368 85.5696 35.067C85.0263 34.577 84.7459 33.9881 84.7284 33.3004C84.7809 31.6294 85.4119 29.6117 86.6211 27.2473L86.7 27.0504L86.6737 26.8948L86.0691 26.9798C85.1402 27.1103 84.6758 27.0694 84.6758 26.857C84.6758 26.68 84.8686 26.3521 85.2541 25.8732C85.4294 25.6716 85.7273 25.2669 86.1479 24.6591C86.9541 23.4132 87.4974 22.7086 87.7778 22.5453L89.0396 21.9963C89.3726 21.8433 90.4153 20.1748 92.1679 16.9907C92.2555 16.8899 92.4132 16.6199 92.6411 16.1809V16.1278C92.1679 16.2828 91.9313 16.4841 91.9313 16.7319C91.9313 16.8381 91.87 16.8998 91.7473 16.9171C91.3968 16.9309 90.5205 16.709 89.1185 16.2512C87.5587 15.7448 86.7701 15.2982 86.7525 14.9113C86.7525 14.8051 86.8226 14.7068 86.9629 14.6163C89.3814 13.1083 92.1241 11.838 95.191 10.8052C98.6435 9.64751 101.64 8.89007 104.182 8.53293C107.371 8.08466 108.983 8.29165 109.019 9.15391C108.983 9.56588 108.966 9.96654 108.966 10.3559C108.983 10.9551 109.027 11.4888 109.097 11.9567C109.167 12.407 109.203 12.8357 109.203 13.2427C109.203 13.8976 108.966 14.2582 108.493 14.3247C107.879 14.4109 106.661 14.0423 104.839 13.2189C104.734 13.1629 104.55 13.1534 104.287 13.1903C103.901 13.2445 103.437 13.3363 102.893 13.4658C102.175 13.6375 101.185 13.8475 99.9229 14.0956C99.0291 14.2566 98.5822 14.4876 98.5822 14.7884C98.5822 14.8946 98.6085 15.0413 98.661 15.2286C98.7311 15.3958 98.7662 15.674 98.7662 16.0633C98.7662 16.3465 98.6961 16.7015 98.5559 17.1282C98.4507 17.4438 98.3631 17.6154 98.293 17.643C98.2404 17.6504 98.1703 17.6337 98.0827 17.5929C98.0126 17.5497 97.9074 17.5202 97.7672 17.5045C97.6796 17.5168 97.4868 17.7651 97.1889 18.2494C96.9435 18.6379 96.7771 18.9179 96.6894 19.0895C96.6894 19.1249 96.7858 19.129 96.9786 19.1019C97.4167 18.9873 97.7497 18.9139 97.9775 18.8819C98.3631 18.8277 98.6435 18.9033 98.8188 19.1088C99.0115 19.2941 99.1868 19.5791 99.3445 19.964C99.66 20.6276 100.116 21.3068 100.712 22.0018C100.992 22.334 101.132 22.5886 101.132 22.7656C101.132 22.9426 100.834 23.0818 100.238 23.1833L99.7651 23.2232C98.6961 23.3911 97.6358 23.5667 96.5843 23.7499C95.5503 23.9129 94.7091 24.1993 94.0606 24.6089C93.4297 24.9985 92.8076 25.7761 92.1942 26.9419C91.5983 28.0875 90.8798 29.8255 90.0386 32.1559L90.0123 32.2658C90.0473 32.5263 90.2839 32.6258 90.722 32.5642C91.0375 32.5199 91.2916 32.4311 91.4844 32.2978C94.1132 30.2648 95.8833 28.9188 96.7946 28.2598C97.443 27.797 97.9074 27.5459 98.1879 27.5065C98.4507 27.4695 98.5909 27.7153 98.6085 28.2438C98.6085 29.6419 98.661 30.6344 98.7662 31.2213L98.7925 31.5893C98.7925 31.7486 98.7399 31.9064 98.6347 32.0627C98.4069 32.3956 97.1714 33.3834 94.9281 35.0259C93.4385 36.1379 92.3081 36.81 91.537 37.0422Z" fill="black"/>
<path d="M118.824 32.2251L118.561 32.2089C117.72 32.0086 117.01 31.8517 116.432 31.7383C115.661 31.6343 115.117 31.516 114.802 31.3834C114.486 31.2507 114.329 30.9986 114.329 30.6269C114.329 30.0606 114.679 28.8345 115.38 26.9485C115.766 25.8855 116.02 25.0446 116.143 24.4256L115.17 25.6242C112.366 29.3631 110.298 31.3262 108.966 31.5134C108.615 31.5626 107.003 31.2229 104.129 30.4942C103.533 30.3302 103.235 29.5668 103.235 28.2041C103.235 25.461 104.138 21.5557 105.943 16.4882C107.573 11.8525 109.194 8.43907 110.806 6.24804C111.192 5.76911 111.49 5.37329 111.7 5.06057C111.945 4.61905 112.147 4.3872 112.305 4.36503C112.445 4.36302 112.699 4.92903 113.067 6.06304C113.558 7.26831 113.803 8.23374 113.803 8.95934C113.803 9.45487 113.68 9.93225 113.435 10.3915C113.137 10.9997 112.804 12.2234 112.436 14.0625C112.401 14.2975 112.331 14.4224 112.226 14.4372C112.191 14.4421 112.138 14.4318 112.068 14.4063C112.015 14.3783 111.963 14.368 111.91 14.3753C111.665 14.4098 110.762 16.9347 109.203 21.95C108.607 23.8742 108.309 25.1726 108.309 25.8452C108.309 26.146 108.396 26.2841 108.572 26.2595C108.957 26.2053 109.763 25.4107 110.99 23.8755C112.024 22.5622 115.275 18.2295 120.743 10.8775C121.146 10.2723 121.593 9.44846 122.084 8.40612L122.583 7.83155C124.231 5.72408 125.168 4.58354 125.396 4.40994C125.782 4.37345 126.228 5.32826 126.737 7.27435C126.982 8.30173 127.105 8.91275 127.105 9.10742C127.087 9.30456 126.965 9.56957 126.737 9.90245C125.79 11.2743 124.537 14.3616 122.977 19.1645C121.558 23.5761 120.682 26.23 120.349 27.1263C120.103 27.7448 119.981 28.1248 119.981 28.2664C119.981 28.3195 119.998 28.3878 120.033 28.4714C120.086 28.5525 120.121 28.8838 120.138 29.4653C120.138 29.7131 119.823 30.483 119.192 31.7752C119.052 32.0603 118.929 32.2103 118.824 32.2251Z" fill="black"/>
<path d="M118.167 37.3082C117.904 37.3451 117.772 37.3016 117.772 37.1778C117.772 36.93 117.983 36.3076 118.403 35.3105L119.376 32.6784C119.464 32.436 119.604 32.1774 119.797 31.9025C119.989 31.61 120.182 31.4502 120.375 31.4231C120.445 31.4132 120.524 31.4464 120.612 31.5226C120.682 31.5835 120.831 31.598 121.058 31.5659C121.812 31.46 123.1 30.7746 124.923 29.5097C126.763 28.2423 128.673 26.7527 130.654 25.0409C132.651 23.3089 134.369 21.6252 135.806 19.9897C135.876 19.909 135.911 19.8333 135.911 19.7625C135.911 19.4794 135.499 19.2983 134.676 19.2194C134.255 19.2077 133.02 19.346 130.969 19.6342C128.463 19.9864 126.737 20.0874 125.79 19.9373C124.844 19.7694 124.371 19.305 124.371 18.544C124.371 17.9069 124.739 16.6959 125.475 14.9112L126.211 12.9495C126.789 11.5232 127.885 9.9004 129.497 8.08102C131.127 6.25917 132.827 4.60445 134.597 3.11685C136.84 1.2265 138.347 0.227134 139.118 0.118761C139.329 0.0892042 139.504 0.135364 139.644 0.257241C139.802 0.358957 139.977 0.502454 140.17 0.687731C140.433 1.04013 140.897 1.44385 141.563 1.89888C142.457 2.46347 142.904 2.85195 142.904 3.06432C142.904 3.17051 142.869 3.29047 142.799 3.4242C142.361 4.22908 141.738 4.84745 140.932 5.2793C140.126 5.69346 139.329 6.02675 138.54 6.27916C137.769 6.52912 137.208 6.79376 136.858 7.07309C134.825 8.95158 133.204 10.6218 131.994 12.0836C130.803 13.5431 130.207 14.4232 130.207 14.724C130.207 14.8125 130.251 14.8506 130.338 14.8383C133.125 14.4467 134.912 14.2132 135.701 14.1377C136.49 14.0623 137.05 14.0985 137.383 14.2464C137.734 14.3918 138.093 14.6598 138.461 15.0506C138.882 15.487 139.644 16.1054 140.748 16.9059C141.309 17.3227 141.589 17.8584 141.589 18.5132C141.589 20.2653 139.749 22.8246 136.069 26.1911C132.021 29.8926 128.375 32.6171 125.133 34.3647C121.768 36.1472 119.446 37.1284 118.167 37.3082Z" fill="black"/>
</svg>
