<svg version="1.2" xmlns="http://www.w3.org/2000/svg" viewBox="0 0 424 129" width="424" height="129">
	<title>Path 2081</title>
	<style>
		.s0 { fill: none;stroke: #ffffff;stroke-linecap: round;stroke-miterlimit:100;stroke-width: 2 } 
	</style>
	<path id="Path 2081" class="s0" d="m288.5 37.1c22.9 2.5 39.3 7.7 40.2 7.3q0.2 0 0.2-0.2l3.5-8.3c0.1-0.2 0.3-0.3 0.5-0.3 4.6 0.5 60.6 4.9 60 4.8-0.7-0.1-54.5 4.5-57.6 4.8q-0.2 0-0.3 0.1l-12.9 11.9c-0.4 0.3-0.9-0.1-0.7-0.5l8.1-20.5c0-0.2 0-0.4-0.1-0.5-2.2-2.1-20.9-19.4-19.2-19 2.4 0.6 86.4 20 96.5 22.2 0.4 0.1 0.5 0.6 0.2 0.8-6.9 4.6-54.7 36.1-55 35.4-0.2-0.6-13.4-23.4-15.7-27.5-0.2-0.3-0.7-0.3-0.8 0.1l-1.5 6c-0.1 0.2 0 0.4 0.2 0.5l2.5 1c0.4 0.1 0.4 0.7-0.1 0.8-8 1.8-88.6-2.1-168.6 12.1-80 14.2-151.2 44.6-151.2 44.6"/>
</svg>