<svg version="1.2" xmlns="http://www.w3.org/2000/svg" viewBox="0 0 334 94" width="334" height="94">
	<title>Path 2080</title>
	<style>
		.s0 { fill: none;stroke: #ffffff;stroke-linecap: round;stroke-miterlimit:100;stroke-width: 2 } 
	</style>
	<path id="Path 2080" class="s0" d="m174.8 52.4c-49.8 10.6-76.7-6-78.1-6.6q-0.1-0.1-0.2-0.3l-3.1-8.3c-0.1-0.2-0.2-0.3-0.4-0.3-4.6 0.2-60 2.1-59.4 2.1 0.7-0.1 53.5 6.8 56.6 7.2q0.2 0 0.3 0.1l12.2 12.3c0.3 0.3 0.8 0 0.7-0.4l-7.1-20.6c0-0.2 0-0.3 0.1-0.5 2.3-1.9 21.4-18.2 19.7-17.8-2.4 0.5-86 15.9-96 17.6-0.4 0.1-0.5 0.6-0.2 0.8 6.6 4.9 52.3 38 52.6 37.3 0.2-0.6 13.7-21.9 16.7-26.5 0.2-0.3 0.7-0.2 0.7 0.2l1.3 6c0.1 0.2-0.1 0.4-0.3 0.5l-2.4 0.8c-0.4 0.1-0.4 0.7 0 0.8 7.8 2.1 32.6 23.8 118.9 1.3 64.4-16.8 107-14.9 107-14.9"/>
</svg>